<svg width="62" height="62" viewBox="0 0 62 62" fill="none" xmlns="http://www.w3.org/2000/svg">
<g id="Setting_alt_line">
<path id="Star 2" d="M6.98653 34.2714C6.09705 32.6724 5.65231 31.8729 5.65231 31C5.65231 30.1272 6.09705 29.3277 6.98652 27.7287L11.4467 19.7109L16.1602 11.8394C17.1003 10.2696 17.5703 9.48467 18.3262 9.04823C19.0821 8.61179 19.9969 8.5972 21.8264 8.56802L31.0001 8.42171L40.1738 8.56802C42.0033 8.5972 42.918 8.61179 43.674 9.04823C44.4299 9.48466 44.8999 10.2696 45.8399 11.8394L50.5535 19.7109L55.0136 27.7287C55.9031 29.3277 56.3478 30.1272 56.3478 31C56.3478 31.8729 55.9031 32.6724 55.0136 34.2714L50.5535 42.2892L45.8399 50.1607C44.8999 51.7305 44.4299 52.5154 43.674 52.9519C42.918 53.3883 42.0033 53.4029 40.1738 53.4321L31.0001 53.5784L21.8264 53.4321C19.9969 53.4029 19.0821 53.3883 18.3262 52.9519C17.5703 52.5154 17.1003 51.7305 16.1602 50.1607L11.4467 42.2892L6.98653 34.2714Z" stroke="white" stroke-width="3.36471"/>
<circle id="Ellipse 5" cx="31" cy="31" r="7.75" stroke="white" stroke-width="3.36471"/>
</g>
</svg>
